<svg xmlns="http://www.w3.org/2000/svg" baseProfile="tiny-ps" version="1.2" viewBox="0 0 1000 1000">
  <defs/>
  <path id="Layer 1" fill="#fff" d="M499.5 958C245.95 958 41 753.05 41 499.5S245.95 41 499.5 41 958 245.95 958 499.5 753.05 958 499.5 958z"/>
  <path id="AC" fill="#000" d="M398.84 556.12l58.17 101.03q1.33 2.45 3.99 4.08 2.92 1.62 5.58 1.62h31.87q2.66 0 4.25 1.91 1.86 1.9 1.86 4.61v17.11q0 2.72-1.86 4.62-1.59 1.9-4.25 1.9h-92.97q-2.66 0-4.51-1.9-1.86-1.9-1.86-4.62v-17.11q0-2.71 1.86-4.61 1.85-1.91 4.51-1.91h14.08q2.92 0 3.72-1.62.8-1.63-.53-4.08l-9.83-16.84q-1.33-2.17-3.99-3.8-2.65-1.63-5.57-1.63h-84.47q-2.66 0-5.58 1.63-2.66 1.63-3.99 3.8l-9.82 16.84q-1.33 2.45-.54 4.08 1.07 1.62 3.72 1.62h14.08q2.66 0 4.52 1.91 1.86 1.9 1.86 4.61v17.11q0 2.72-1.86 4.62t-4.52 1.9h-92.7q-2.66 0-4.52-1.9-1.86-1.9-1.86-4.62v-17.11q0-2.71 1.86-4.61 1.86-1.91 4.52-1.91h31.61q2.65 0 5.31-1.62 2.92-1.63 4.25-4.08l58.44-101.03q1.33-2.17.26-3.8-.79-1.63-3.45-1.63h-11.95q-2.92 0-4.78-1.9-1.6-1.9-1.6-4.62v-17.38q0-2.71 1.6-4.34 1.86-1.9 4.78-1.9h105.45q2.66 0 4.52 1.9 1.86 1.63 1.86 4.34v17.38q0 2.72-1.86 4.62t-4.52 1.9h-12.22q-2.65 0-3.45 1.63-.8 1.63.53 3.8zm-65.08 52.69h54.72q2.66 0 3.45-1.63 1.07-1.63-.26-3.8l-27.36-47.26q-.53-1.08-1.06-1.9-.53-1.08-1.07-1.9-.53-1.08-1.06-1.63l-.8 1.63q-.53.82-1.32 1.9-.53.82-1.07 1.9l-27.09 47.26q-1.33 2.17-.53 3.8t3.45 1.63zm396.58-89.08h17q2.66 0 4.52 1.9 1.86 1.9 1.86 4.62v38.29q0 2.72-1.86 4.62-1.86 1.63-4.52 1.9h-17q-2.65 0-4.51-1.09-1.59-1.35-1.59-2.98v-10.32q0-2.45-1.86-4.08-1.6-1.9-4.25-1.9H571.5q-2.66 0-5.84 1.36-3.19 1.09-5.05 2.99l-2.66 2.17q-2.12 1.9-3.45 5.16-1.33 2.99-1.33 5.7v77.13q0 2.72 1.33 5.98 1.33 2.98 3.45 4.89l2.66 2.44q1.86 1.9 5.05 3.26 3.18 1.08 5.84 1.08h134.41q2.65 0 5.58-1.08 3.18-1.36 5.31-3.26l2.65-2.44q2.13-1.91 3.46-4.35 1.33-2.72 1.33-4.62 0-2.17 1.59-3.53 1.86-1.36 4.51-1.36h17q2.66 0 4.52 1.91 1.86 1.9 1.86 4.61v10.05q0 2.72-1.33 5.98-1.33 2.98-3.45 4.88l-20.72 19.01q-2.13 1.91-5.31 3.26-3.19 1.09-5.85 1.09H560.08q-2.66 0-5.85-1.09-2.92-1.35-5.04-3.26l-20.72-19.01q-2.13-1.9-3.46-4.88-1.32-3.26-1.32-5.98V554.77q0-2.72 1.32-5.71 1.33-3.26 3.46-5.16l20.72-19.28q2.12-1.63 5.04-2.72 3.19-1.35 5.85-1.35h149.81q2.66 0 5.05 1.9 2.39 1.63 3.19 4.07.79 2.45 1.86 2.45 1.06 0 1.85-2.45l.27-.54q.8-2.45 3.19-4.35 2.39-1.9 5.04-1.9z" aria-label="AC"/>
  <path id="I S" fill="#000" d="M310.34 330.63v-17.11q0-2.71 1.86-4.62 1.86-1.9 4.52-1.9h92.7q2.66 0 4.52 1.9 1.86 1.91 1.86 4.62v17.11q0 2.99-1.86 4.89-1.86 1.63-4.52 1.63h-25.23q-2.66 0-4.52 1.9-1.86 1.9-1.86 4.62v99.67q0 2.71 1.86 4.61 1.86 1.9 4.52 1.9h25.23q2.66 0 4.52 1.91 1.86 1.9 1.86 4.61v17.11q0 2.72-1.86 4.62t-4.52 1.9h-92.7q-2.66 0-4.52-1.9-1.86-1.9-1.86-4.62v-17.11q0-2.71 1.86-4.61 1.86-1.91 4.52-1.91h25.23q2.66 0 4.52-1.9 1.86-1.9 1.86-4.61v-99.67q0-2.72-1.86-4.62t-4.52-1.9h-25.23q-2.66 0-4.52-1.63-1.86-1.9-1.86-4.89zm249.96 10.86l-5.31 4.08q-2.13 1.63-3.72 4.61-1.33 2.99-1.33 5.71v4.34q0 2.72 1.33 5.71 1.59 2.98 3.72 4.61l5.31 4.08q2.12 1.63 5.31 2.98 3.46 1.09 6.11 1.09h137.33q2.66 0 5.85 1.09 3.45 1.08 5.57 2.71l24.97 19.28q2.13 1.63 3.46 4.62 1.59 2.99 1.59 5.7v34.5q0 2.71-1.59 5.7-1.33 2.99-3.46 4.62l-24.97 19.28q-2.12 1.63-5.57 2.71-3.19 1.09-5.85 1.09H562.69q-2.66 0-6.11-.81-3.45-1.09-5.58-2.45l-26.29-16.29q-2.4-1.36-3.19-3.81-.53-2.71.79-5.16l8.77-14.66q1.33-2.17 3.99-2.72 2.65-.81 4.78.55l19.39 11.95q2.12 1.35 5.58 2.44 3.45.81 6.1.81h128.3q2.66 0 5.85-1.08 3.18-1.36 5.31-2.72l5.58-4.34q2.12-1.36 3.45-4.35 1.59-3.26 1.59-5.97v-4.35q0-2.71-1.59-5.7-1.33-2.99-3.45-4.62l-5.58-4.07q-2.13-1.63-5.31-2.72-3.19-1.08-5.85-1.08H561.89q-2.65 0-6.11-1.09-3.18-1.36-5.31-2.72l-24.97-19.28q-2.12-1.63-3.72-4.62-1.32-2.98-1.32-5.7v-34.49q0-2.71 1.32-5.7 1.6-3.26 3.72-4.62l24.97-19.28q2.13-1.63 5.31-2.72 3.46-1.08 6.11-1.08H712.5q2.66 0 6.11 1.08 3.46.82 5.58 2.18l22.32 14.39q2.12 1.36 2.65 4.07.53 2.45-.8 4.62l-8.76 14.67q-1.33 2.17-3.99 2.98-2.65.55-4.78-.81l-15.14-9.78q-2.12-1.36-5.58-2.17-3.45-1.09-6.11-1.09H571.72q-2.65 0-6.11 1.09-3.19 1.08-5.31 2.71z" aria-label="I S"/>
</svg>
